<?xml version="1.0" encoding="UTF-8" ?>
<!DOCTYPE svg PUBLIC "-//W3C//DTD SVG 1.1//EN" "http://www.w3.org/Graphics/SVG/1.1/DTD/svg11.dtd">
<svg width="474pt" height="329pt" viewBox="0 0 474 329" version="1.1" xmlns="http://www.w3.org/2000/svg">
<g id="#fbfef7ff">
<path fill="#fbfef7" opacity="1.00" d=" M 0.00 0.00 L 8.84 0.00 L 7.63 1.14 C 6.77 1.23 5.06 1.42 4.20 1.51 C 3.84 1.52 3.12 1.55 2.76 1.57 C 5.29 11.81 10.17 21.30 15.88 30.11 C 19.91 36.36 22.27 43.50 26.24 49.78 C 30.13 55.90 34.06 62.00 37.74 68.26 C 41.04 73.81 43.08 80.02 46.54 85.48 C 51.10 92.49 54.15 100.33 58.61 107.41 C 63.65 116.91 70.09 125.59 74.71 135.33 C 79.41 142.81 83.30 150.74 87.63 158.43 C 92.42 165.56 95.16 173.84 100.20 180.81 C 103.57 185.62 106.20 190.89 108.94 196.08 C 112.44 202.75 117.50 208.49 120.51 215.43 C 123.39 221.98 126.73 228.34 130.81 234.23 C 135.14 240.45 138.14 247.44 142.09 253.89 C 146.20 260.67 149.18 268.05 153.19 274.88 C 158.44 283.99 164.14 292.96 171.37 300.64 C 176.37 305.74 182.74 309.19 188.01 313.98 C 193.34 318.79 200.32 320.99 207.04 323.07 C 210.04 324.03 213.22 323.76 216.32 323.63 C 229.78 326.19 243.78 326.65 257.16 323.30 C 266.55 321.54 275.05 317.07 283.64 313.11 C 286.34 312.97 289.25 313.25 291.69 311.80 C 297.14 308.80 301.77 304.47 305.50 299.52 C 309.19 294.55 313.94 290.40 317.04 284.99 C 322.40 276.00 325.56 265.65 332.91 257.93 C 335.69 254.35 337.21 250.04 338.96 245.91 C 341.71 239.20 345.93 233.22 348.58 226.46 C 352.26 217.19 358.69 209.45 364.35 201.37 C 368.56 195.43 370.43 188.28 373.95 181.97 C 376.50 177.02 379.87 172.57 382.75 167.82 C 385.73 162.93 387.01 157.13 390.60 152.59 C 393.33 149.03 396.95 146.09 398.94 141.98 C 401.21 137.21 401.64 131.76 404.11 127.06 C 407.18 121.36 413.05 117.70 415.61 111.66 C 418.24 104.94 422.60 99.16 425.87 92.77 C 429.45 85.23 434.34 78.37 437.66 70.70 C 439.89 65.52 442.70 60.62 446.06 56.09 C 450.31 50.46 452.33 43.45 457.05 38.14 C 461.18 33.82 460.59 27.37 463.45 22.39 C 467.08 16.06 470.12 9.41 474.00 3.22 L 474.00 61.67 C 467.15 65.04 460.31 69.41 452.42 69.46 C 451.91 71.57 451.64 73.81 450.56 75.72 C 449.15 77.66 447.13 79.01 445.31 80.52 C 446.76 83.32 449.01 86.34 447.84 89.67 C 445.50 97.57 442.67 105.37 438.91 112.72 C 436.94 116.59 435.87 120.88 433.61 124.60 C 431.28 127.21 427.69 128.28 425.37 130.92 C 422.75 133.99 421.89 138.15 419.33 141.26 C 414.98 145.83 408.08 147.04 404.12 152.04 C 405.61 156.06 408.62 159.45 409.40 163.74 C 409.63 168.52 407.40 173.62 403.23 176.16 C 401.51 177.47 399.47 178.51 398.24 180.34 C 397.11 182.42 396.60 184.74 395.96 187.00 C 398.35 185.00 400.71 182.96 403.12 180.98 C 403.02 184.05 403.99 187.98 401.19 190.19 C 397.55 192.95 392.20 191.79 388.72 194.76 C 386.21 198.70 385.16 203.41 382.46 207.27 C 383.33 207.55 384.20 207.83 385.08 208.11 C 384.24 209.89 383.38 211.66 382.54 213.44 C 379.38 212.46 375.02 209.96 372.60 213.60 C 369.94 215.91 372.31 218.99 373.24 221.52 C 374.60 224.12 373.98 227.09 373.73 229.86 C 370.53 228.83 367.41 226.97 363.98 227.07 C 360.47 229.33 358.53 233.32 356.86 237.00 C 354.65 241.60 359.07 246.03 358.44 250.66 C 357.12 254.74 354.73 258.44 354.08 262.74 C 353.20 266.24 353.15 270.49 350.13 272.95 C 340.08 281.05 329.52 288.49 319.39 296.49 C 317.16 298.22 315.29 300.33 313.51 302.51 C 314.39 303.74 315.27 304.99 316.15 306.24 C 313.81 308.42 310.92 310.56 310.34 313.93 C 309.72 316.42 312.46 317.91 313.72 319.64 C 308.36 320.24 304.06 316.27 298.81 316.15 C 298.82 317.70 298.82 319.26 298.84 320.82 C 297.69 319.49 296.54 318.16 295.40 316.84 C 293.55 317.75 291.62 318.54 289.98 319.81 C 288.92 321.76 289.11 324.12 288.31 326.17 C 285.52 327.22 282.61 327.90 279.84 329.00 L 196.21 329.00 C 194.02 327.00 191.83 324.39 188.61 324.34 C 183.87 323.65 178.21 325.27 174.37 321.64 C 170.51 317.93 165.67 314.36 164.61 308.78 C 163.00 302.01 159.54 294.44 152.30 292.30 C 151.88 290.19 151.50 288.07 151.11 285.95 C 147.81 286.68 144.49 287.32 141.16 287.88 C 139.38 282.92 138.45 277.72 137.11 272.64 C 136.12 268.85 132.69 266.56 130.04 263.96 C 125.81 260.17 122.86 255.12 118.28 251.69 C 114.31 248.46 109.21 246.04 107.09 241.07 C 103.96 233.49 99.05 226.28 98.98 217.78 C 98.42 211.47 101.76 205.47 100.69 199.17 C 99.78 193.97 97.69 188.83 94.04 184.95 C 91.69 182.39 88.43 181.03 85.36 179.56 C 84.08 183.85 82.85 188.15 81.92 192.53 C 79.98 188.47 77.31 184.85 74.84 181.12 C 73.17 178.70 73.73 175.64 73.51 172.88 C 73.42 167.25 69.32 162.68 68.73 157.18 C 69.19 153.85 71.71 151.16 72.05 147.80 C 71.89 144.41 70.21 141.32 68.54 138.44 C 62.88 129.41 56.91 120.55 51.83 111.17 C 49.64 107.09 44.67 105.67 42.30 101.76 C 38.83 96.01 36.74 89.60 34.84 83.21 C 34.01 81.02 33.42 78.15 30.88 77.37 C 27.58 76.13 24.31 74.72 21.57 72.45 C 18.96 70.24 15.24 72.02 12.33 70.71 C 10.86 69.59 10.52 67.63 10.06 65.96 C 8.31 57.82 7.82 49.43 5.60 41.40 C 4.89 38.73 1.98 37.83 0.00 36.33 L 0.00 0.00 Z" />
</g>
<g id="#f4fcebff">
<path fill="#f4fceb" opacity="1.00" d=" M 8.84 0.00 L 474.00 0.00 L 474.00 3.22 C 470.12 9.41 467.08 16.06 463.45 22.39 C 460.59 27.37 461.18 33.82 457.05 38.14 C 452.33 43.45 450.31 50.46 446.06 56.09 C 442.70 60.62 439.89 65.52 437.66 70.70 C 434.34 78.37 429.45 85.23 425.87 92.77 C 422.60 99.16 418.24 104.94 415.61 111.66 C 413.05 117.70 407.18 121.36 404.11 127.06 C 401.64 131.76 401.21 137.21 398.94 141.98 C 396.95 146.09 393.33 149.03 390.60 152.59 C 387.01 157.13 385.73 162.93 382.75 167.82 C 379.87 172.57 376.50 177.02 373.95 181.97 C 370.43 188.28 368.56 195.43 364.35 201.37 C 358.69 209.45 352.26 217.19 348.58 226.46 C 345.93 233.22 341.71 239.20 338.96 245.91 C 337.21 250.04 335.69 254.35 332.91 257.93 C 325.56 265.65 322.40 276.00 317.04 284.99 C 313.94 290.40 309.19 294.55 305.50 299.52 C 301.77 304.47 297.14 308.80 291.69 311.80 C 289.25 313.25 286.34 312.97 283.64 313.11 C 296.01 304.97 307.37 294.67 314.58 281.57 C 322.85 266.82 330.94 251.96 339.13 237.17 C 344.31 228.58 349.13 219.79 353.89 210.97 C 364.81 192.34 374.92 173.26 385.36 154.37 C 399.68 130.14 412.73 105.19 426.99 80.92 C 429.90 75.85 432.82 70.78 435.30 65.48 C 444.39 50.72 452.73 35.51 461.36 20.48 C 465.08 14.31 468.41 7.92 471.75 1.54 C 450.50 1.24 429.25 1.53 407.99 1.50 C 403.45 1.65 398.54 0.89 394.42 3.28 C 388.00 11.61 383.01 20.94 378.25 30.28 C 371.32 42.40 364.58 54.62 357.74 66.79 C 349.80 82.02 340.73 96.64 332.71 111.83 C 323.02 129.04 313.40 146.30 303.63 163.47 C 299.41 171.80 294.45 179.72 289.78 187.80 C 281.67 203.76 272.18 218.95 263.73 234.72 C 259.48 242.14 255.85 250.63 248.33 255.36 C 241.05 260.08 230.65 259.68 223.98 254.02 C 220.49 251.16 217.57 247.63 215.43 243.66 C 209.22 231.92 202.79 220.31 196.00 208.89 C 188.21 193.89 179.15 179.61 171.34 164.62 C 160.88 146.08 150.77 127.35 140.21 108.87 C 130.14 90.44 119.31 72.44 109.53 53.86 C 101.53 38.58 92.34 23.95 84.31 8.68 C 82.58 5.32 80.11 1.41 75.78 1.63 C 53.08 1.13 30.34 1.84 7.63 1.14 L 8.84 0.00 M 109.10 2.78 C 116.16 15.70 123.90 28.23 130.67 41.31 C 133.34 46.67 136.75 51.61 140.06 56.59 C 138.38 56.88 136.16 58.16 135.08 56.05 C 131.37 50.56 128.47 44.55 124.70 39.08 C 120.36 42.87 116.33 46.99 112.36 51.17 C 116.60 57.06 119.94 63.53 122.82 70.18 C 125.26 76.05 129.84 80.62 132.87 86.15 C 134.65 89.34 136.58 92.44 138.52 95.53 C 141.26 99.91 142.90 104.88 145.84 109.15 C 150.29 115.87 154.98 122.49 158.20 129.93 C 163.25 139.36 169.19 148.29 174.39 157.64 C 177.35 162.99 178.03 169.35 181.62 174.39 C 184.28 178.11 186.89 181.89 189.08 185.92 C 191.21 189.98 194.67 193.05 197.48 196.60 C 199.70 199.18 198.94 202.87 200.30 205.80 C 201.82 208.17 204.13 209.97 205.45 212.49 C 207.13 216.24 207.15 220.50 208.84 224.25 C 210.65 227.31 214.05 228.98 216.07 231.89 C 217.82 234.82 218.00 238.41 219.67 241.38 C 221.64 243.73 224.12 245.59 226.24 247.81 C 227.62 249.07 228.97 250.89 231.08 250.65 C 235.73 250.59 240.31 251.43 244.91 251.88 C 248.10 251.41 250.24 248.51 252.15 246.15 C 257.14 238.81 259.26 230.02 263.01 222.05 C 264.83 218.09 268.50 215.53 271.22 212.26 C 273.82 209.31 272.69 205.09 273.72 201.58 C 274.45 200.11 275.62 198.92 276.65 197.65 C 280.20 193.70 282.02 188.54 285.70 184.68 C 289.44 180.86 289.10 175.07 291.65 170.60 C 294.95 164.71 297.74 158.41 302.42 153.43 C 308.25 147.08 311.50 139.01 315.35 131.43 C 317.47 127.07 320.97 123.51 322.79 118.99 C 323.87 116.44 324.70 113.70 326.57 111.58 C 334.23 103.09 336.73 91.45 343.16 82.17 C 345.96 77.87 347.66 72.94 350.91 68.92 C 353.97 65.12 354.40 60.02 357.04 55.99 C 361.07 50.09 362.81 42.97 367.13 37.22 C 361.47 36.82 355.80 36.73 350.13 36.62 C 348.50 38.71 346.85 40.79 345.21 42.87 C 344.91 42.46 344.30 41.65 343.99 41.24 C 351.25 28.52 357.76 15.36 365.57 2.97 C 325.39 2.40 285.19 2.80 245.00 2.66 C 199.70 2.78 154.39 2.29 109.10 2.78 Z" />
</g>
<g id="#ebf6c9ff">
<path fill="#ebf6c9" opacity="1.00" d=" M 2.76 1.57 C 3.12 1.55 3.84 1.52 4.20 1.51 C 5.37 4.42 6.33 7.42 7.84 10.18 C 20.54 32.80 33.03 55.54 45.99 78.02 C 50.52 85.78 54.46 93.93 59.85 101.16 C 61.85 105.73 64.01 110.23 66.54 114.52 C 74.60 127.94 81.46 142.03 89.51 155.45 C 97.86 171.05 107.11 186.13 115.46 201.72 C 122.56 213.12 128.49 225.18 135.29 236.76 C 140.43 245.97 145.69 255.10 150.73 264.37 C 158.12 277.27 164.66 291.03 175.57 301.45 C 187.09 312.00 201.19 319.69 216.32 323.63 C 213.22 323.76 210.04 324.03 207.04 323.07 C 200.32 320.99 193.34 318.79 188.01 313.98 C 182.74 309.19 176.37 305.74 171.37 300.64 C 164.14 292.96 158.44 283.99 153.19 274.88 C 149.18 268.05 146.20 260.67 142.09 253.89 C 138.14 247.44 135.14 240.45 130.81 234.23 C 126.73 228.34 123.39 221.98 120.51 215.43 C 117.50 208.49 112.44 202.75 108.94 196.08 C 106.20 190.89 103.57 185.62 100.20 180.81 C 95.16 173.84 92.42 165.56 87.63 158.43 C 83.30 150.74 79.41 142.81 74.71 135.33 C 70.09 125.59 63.65 116.91 58.61 107.41 C 54.15 100.33 51.10 92.49 46.54 85.48 C 43.08 80.02 41.04 73.81 37.74 68.26 C 34.06 62.00 30.13 55.90 26.24 49.78 C 22.27 43.50 19.91 36.36 15.88 30.11 C 10.17 21.30 5.29 11.81 2.76 1.57 Z" />
</g>
<g id="#9cbd2bff">
<path fill="#9cbd2b" opacity="1.00" d=" M 4.20 1.51 C 5.06 1.42 6.77 1.23 7.63 1.14 C 30.34 1.84 53.08 1.13 75.78 1.63 C 80.11 1.41 82.58 5.32 84.31 8.68 C 92.34 23.95 101.53 38.58 109.53 53.86 C 109.14 54.44 108.38 55.60 107.99 56.18 C 105.95 51.63 103.80 47.10 100.99 42.96 C 96.57 36.50 93.39 29.33 89.25 22.71 C 85.74 17.16 83.60 10.73 79.19 5.79 C 76.96 3.11 73.21 3.26 70.05 3.18 C 55.36 3.40 40.66 3.42 25.97 3.16 C 22.43 3.23 18.38 3.02 15.53 5.52 C 13.75 7.06 11.58 9.21 12.31 11.81 C 13.87 18.68 17.63 24.76 21.51 30.55 C 25.23 36.09 27.50 42.43 31.06 48.07 C 37.39 57.92 42.65 68.40 48.50 78.54 C 52.33 86.05 57.19 93.10 59.85 101.16 C 54.46 93.93 50.52 85.78 45.99 78.02 C 33.03 55.54 20.54 32.80 7.84 10.18 C 6.33 7.42 5.37 4.42 4.20 1.51 Z" />
</g>
<g id="#9abd47ff">
<path fill="#9abd47" opacity="1.00" d=" M 394.42 3.28 C 398.54 0.89 403.45 1.65 407.99 1.50 C 429.25 1.53 450.50 1.24 471.75 1.54 C 468.41 7.92 465.08 14.31 461.36 20.48 C 452.73 35.51 444.39 50.72 435.30 65.48 C 436.16 61.66 437.33 57.87 439.49 54.56 C 445.61 44.77 450.37 34.21 456.33 24.33 C 460.29 18.23 463.69 11.77 466.16 4.93 C 442.42 1.15 418.31 4.36 394.42 3.28 Z" />
</g>
<g id="#95c00bff">
<path fill="#95c00b" opacity="1.00" d=" M 15.53 5.52 C 18.38 3.02 22.43 3.23 25.97 3.16 C 40.66 3.42 55.36 3.40 70.05 3.18 C 73.21 3.26 76.96 3.11 79.19 5.79 C 83.60 10.73 85.74 17.16 89.25 22.71 C 93.39 29.33 96.57 36.50 100.99 42.96 C 103.80 47.10 105.95 51.63 107.99 56.18 C 108.38 55.60 109.14 54.44 109.53 53.86 C 119.31 72.44 130.14 90.44 140.21 108.87 C 150.77 127.35 160.88 146.08 171.34 164.62 C 179.15 179.61 188.21 193.89 196.00 208.89 C 202.79 220.31 209.22 231.92 215.43 243.66 C 217.57 247.63 220.49 251.16 223.98 254.02 C 230.65 259.68 241.05 260.08 248.33 255.36 C 255.85 250.63 259.48 242.14 263.73 234.72 C 272.18 218.95 281.67 203.76 289.78 187.80 C 294.45 179.72 299.41 171.80 303.63 163.47 C 313.40 146.30 323.02 129.04 332.71 111.83 C 340.73 96.64 349.80 82.02 357.74 66.79 C 364.58 54.62 371.32 42.40 378.25 30.28 C 383.01 20.94 388.00 11.61 394.42 3.28 C 418.31 4.36 442.42 1.15 466.16 4.93 C 463.69 11.77 460.29 18.23 456.33 24.33 C 450.37 34.21 445.61 44.77 439.49 54.56 C 437.33 57.87 436.16 61.66 435.30 65.48 C 432.82 70.78 429.90 75.85 426.99 80.92 C 412.73 105.19 399.68 130.14 385.36 154.37 C 374.92 173.26 364.81 192.34 353.89 210.97 C 349.13 219.79 344.31 228.58 339.13 237.17 C 330.94 251.96 322.85 266.82 314.58 281.57 C 307.37 294.67 296.01 304.97 283.64 313.11 C 275.05 317.07 266.55 321.54 257.16 323.30 C 243.78 326.65 229.78 326.19 216.32 323.63 C 201.19 319.69 187.09 312.00 175.57 301.45 C 164.66 291.03 158.12 277.27 150.73 264.37 C 145.69 255.10 140.43 245.97 135.29 236.76 C 128.49 225.18 122.56 213.12 115.46 201.72 C 107.11 186.13 97.86 171.05 89.51 155.45 C 81.46 142.03 74.60 127.94 66.54 114.52 C 64.01 110.23 61.85 105.73 59.85 101.16 C 57.19 93.10 52.33 86.05 48.50 78.54 C 42.65 68.40 37.39 57.92 31.06 48.07 C 27.50 42.43 25.23 36.09 21.51 30.55 C 17.63 24.76 13.87 18.68 12.31 11.81 C 11.58 9.21 13.75 7.06 15.53 5.52 Z" />
</g>
<g id="#0d622bff">
<path fill="#0d622b" opacity="1.00" d=" M 109.10 2.78 C 154.39 2.29 199.70 2.78 245.00 2.66 C 285.19 2.80 325.39 2.40 365.57 2.97 C 357.76 15.36 351.25 28.52 343.99 41.24 C 342.25 44.43 340.82 47.78 338.99 50.92 C 333.73 57.07 325.16 55.60 317.99 55.66 C 265.66 55.71 213.33 55.58 161.00 55.55 C 154.21 55.62 147.32 54.88 140.65 56.52 L 140.06 56.59 C 136.75 51.61 133.34 46.67 130.67 41.31 C 123.90 28.23 116.16 15.70 109.10 2.78 Z" />
</g>
<g id="#f8fcf6ff">
<path fill="#f8fcf6" opacity="1.00" d=" M 350.13 36.62 C 355.80 36.73 361.47 36.82 367.13 37.22 C 362.81 42.97 361.07 50.09 357.04 55.99 C 354.40 60.02 353.97 65.12 350.91 68.92 C 347.66 72.94 345.96 77.87 343.16 82.17 C 336.73 91.45 334.23 103.09 326.57 111.58 C 324.70 113.70 323.87 116.44 322.79 118.99 C 320.97 123.51 317.47 127.07 315.35 131.43 C 311.50 139.01 308.25 147.08 302.42 153.43 C 297.74 158.41 294.95 164.71 291.65 170.60 C 289.10 175.07 289.44 180.86 285.70 184.68 C 282.02 188.54 280.20 193.70 276.65 197.65 C 275.62 198.92 274.45 200.11 273.72 201.58 C 272.69 205.09 273.82 209.31 271.22 212.26 C 268.50 215.53 264.83 218.09 263.01 222.05 C 259.26 230.02 257.14 238.81 252.15 246.15 C 250.24 248.51 248.10 251.41 244.91 251.88 C 240.31 251.43 235.73 250.59 231.08 250.65 C 228.97 250.89 227.62 249.07 226.24 247.81 C 224.12 245.59 221.64 243.73 219.67 241.38 C 218.00 238.41 217.82 234.82 216.07 231.89 C 214.05 228.98 210.65 227.31 208.84 224.25 C 207.15 220.50 207.13 216.24 205.45 212.49 C 204.13 209.97 201.82 208.17 200.30 205.80 C 198.94 202.87 199.70 199.18 197.48 196.60 C 194.67 193.05 191.21 189.98 189.08 185.92 C 186.89 181.89 184.28 178.11 181.62 174.39 C 178.03 169.35 177.35 162.99 174.39 157.64 C 169.19 148.29 163.25 139.36 158.20 129.93 C 154.98 122.49 150.29 115.87 145.84 109.15 C 142.90 104.88 141.26 99.91 138.52 95.53 C 136.58 92.44 134.65 89.34 132.87 86.15 C 129.84 80.62 125.26 76.05 122.82 70.18 C 119.94 63.53 116.60 57.06 112.36 51.17 C 116.33 46.99 120.36 42.87 124.70 39.08 C 128.47 44.55 131.37 50.56 135.08 56.05 C 136.16 58.16 138.38 56.88 140.06 56.59 L 140.65 56.52 C 140.96 56.58 141.58 56.70 141.88 56.76 C 146.85 57.86 151.95 57.68 157.00 57.60 C 214.35 57.51 271.71 57.38 329.06 57.55 C 333.63 58.06 337.10 54.72 338.99 50.92 C 340.82 47.78 342.25 44.43 343.99 41.24 C 344.30 41.65 344.91 42.46 345.21 42.87 C 346.85 40.79 348.50 38.71 350.13 36.62 M 158.00 88.56 C 160.03 95.49 164.33 101.38 167.75 107.66 C 172.84 117.00 178.33 126.12 183.51 135.42 C 184.70 137.49 185.82 139.69 187.63 141.30 C 190.98 142.36 194.53 142.28 198.00 142.30 C 226.02 142.28 254.04 142.45 282.07 142.31 C 284.73 142.47 287.50 141.39 288.88 139.02 C 297.72 124.04 306.04 108.76 314.51 93.57 C 315.43 92.00 315.66 90.18 316.05 88.43 C 263.37 88.46 210.68 88.23 158.00 88.56 M 206.02 174.49 C 206.61 179.22 209.10 183.37 212.20 186.90 C 216.34 195.21 221.40 203.07 225.75 211.29 C 229.45 216.96 231.95 223.34 236.15 228.68 C 236.79 228.66 238.06 228.61 238.69 228.59 C 247.59 214.90 254.86 200.22 262.92 186.05 C 265.78 182.66 267.86 178.64 268.22 174.16 C 262.84 173.29 257.40 173.85 252.01 174.20 C 236.68 174.52 221.34 173.93 206.02 174.49 Z" />
</g>
<g id="#ffffffff">
<path fill="#ffffff" opacity="1.00" d=" M 0.00 36.33 C 1.98 37.83 4.89 38.73 5.60 41.40 C 7.82 49.43 8.31 57.82 10.06 65.96 C 10.52 67.63 10.86 69.59 12.33 70.71 C 15.24 72.02 18.96 70.24 21.57 72.45 C 24.31 74.72 27.58 76.13 30.88 77.37 C 33.42 78.15 34.01 81.02 34.84 83.21 C 36.74 89.60 38.83 96.01 42.30 101.76 C 44.67 105.67 49.64 107.09 51.83 111.17 C 56.91 120.55 62.88 129.41 68.54 138.44 C 70.21 141.32 71.89 144.41 72.05 147.80 C 71.71 151.16 69.19 153.85 68.73 157.18 C 69.32 162.68 73.42 167.25 73.51 172.88 C 73.73 175.64 73.17 178.70 74.84 181.12 C 77.31 184.85 79.98 188.47 81.92 192.53 C 82.85 188.15 84.08 183.85 85.36 179.56 C 88.43 181.03 91.69 182.39 94.04 184.95 C 97.69 188.83 99.78 193.97 100.69 199.17 C 101.76 205.47 98.42 211.47 98.98 217.78 C 99.05 226.28 103.96 233.49 107.09 241.07 C 109.21 246.04 114.31 248.46 118.28 251.69 C 122.86 255.12 125.81 260.17 130.04 263.96 C 132.69 266.56 136.12 268.85 137.11 272.64 C 138.45 277.72 139.38 282.92 141.16 287.88 C 144.49 287.32 147.81 286.68 151.11 285.95 C 151.50 288.07 151.88 290.19 152.30 292.30 C 159.54 294.44 163.00 302.01 164.61 308.78 C 165.67 314.36 170.51 317.93 174.37 321.64 C 178.21 325.27 183.87 323.65 188.61 324.34 C 191.83 324.39 194.02 327.00 196.21 329.00 L 0.00 329.00 L 0.00 36.33 Z" />
<path fill="#ffffff" opacity="1.00" d=" M 452.42 69.46 C 460.31 69.41 467.15 65.04 474.00 61.67 L 474.00 329.00 L 279.84 329.00 C 282.61 327.90 285.52 327.22 288.31 326.17 C 289.11 324.12 288.92 321.76 289.98 319.81 C 291.62 318.54 293.55 317.75 295.40 316.84 C 296.54 318.16 297.69 319.49 298.84 320.82 C 298.82 319.26 298.82 317.70 298.81 316.15 C 304.06 316.27 308.36 320.24 313.72 319.64 C 312.46 317.91 309.72 316.42 310.34 313.93 C 310.92 310.56 313.81 308.42 316.15 306.24 C 315.27 304.99 314.39 303.74 313.51 302.51 C 315.29 300.33 317.16 298.22 319.39 296.49 C 329.52 288.49 340.08 281.05 350.13 272.95 C 353.15 270.49 353.20 266.24 354.08 262.74 C 354.73 258.44 357.12 254.74 358.44 250.66 C 359.07 246.03 354.65 241.60 356.86 237.00 C 358.53 233.32 360.47 229.33 363.98 227.07 C 367.41 226.97 370.53 228.83 373.73 229.86 C 373.98 227.09 374.60 224.12 373.24 221.52 C 372.31 218.99 369.94 215.91 372.60 213.60 C 375.02 209.96 379.38 212.46 382.54 213.44 C 383.38 211.66 384.24 209.89 385.08 208.11 C 384.20 207.83 383.33 207.55 382.46 207.27 C 385.16 203.41 386.21 198.70 388.72 194.76 C 392.20 191.79 397.55 192.95 401.19 190.19 C 403.99 187.98 403.02 184.05 403.12 180.98 C 400.71 182.96 398.35 185.00 395.96 187.00 C 396.60 184.74 397.11 182.42 398.24 180.34 C 399.47 178.51 401.51 177.47 403.23 176.16 C 407.40 173.62 409.63 168.52 409.40 163.74 C 408.62 159.45 405.61 156.06 404.12 152.04 C 408.08 147.04 414.98 145.83 419.33 141.26 C 421.89 138.15 422.75 133.99 425.37 130.92 C 427.69 128.28 431.28 127.21 433.61 124.60 C 435.87 120.88 436.94 116.59 438.91 112.72 C 442.67 105.37 445.50 97.57 447.84 89.67 C 449.01 86.34 446.76 83.32 445.31 80.52 C 447.13 79.01 449.15 77.66 450.56 75.72 C 451.64 73.81 451.91 71.57 452.42 69.46 Z" />
</g>
<g id="#6a9c83ff">
<path fill="#6a9c83" opacity="1.00" d=" M 317.99 55.66 C 325.16 55.60 333.73 57.07 338.99 50.92 C 337.10 54.72 333.63 58.06 329.06 57.55 C 271.71 57.38 214.35 57.51 157.00 57.60 C 151.95 57.68 146.85 57.86 141.88 56.76 C 141.58 56.70 140.96 56.58 140.65 56.52 C 147.32 54.88 154.21 55.62 161.00 55.55 C 213.33 55.58 265.66 55.71 317.99 55.66 Z" />
</g>
<g id="#10882bff">
<path fill="#10882b" opacity="1.00" d=" M 158.00 88.56 C 210.68 88.23 263.37 88.46 316.05 88.43 C 315.66 90.18 315.43 92.00 314.51 93.57 C 306.04 108.76 297.72 124.04 288.88 139.02 C 287.50 141.39 284.73 142.47 282.07 142.31 C 254.04 142.45 226.02 142.28 198.00 142.30 C 194.53 142.28 190.98 142.36 187.63 141.30 C 185.82 139.69 184.70 137.49 183.51 135.42 C 178.33 126.12 172.84 117.00 167.75 107.66 C 164.33 101.38 160.03 95.49 158.00 88.56 Z" />
</g>
<g id="#a1c446ff">
<path fill="#a1c446" opacity="1.00" d=" M 206.02 174.49 C 221.34 173.93 236.68 174.52 252.01 174.20 C 257.40 173.85 262.84 173.29 268.22 174.16 C 267.86 178.64 265.78 182.66 262.92 186.05 C 263.40 183.29 263.87 180.45 263.37 177.66 C 261.20 175.71 258.05 175.80 255.32 175.58 C 244.22 175.46 233.11 176.35 222.01 175.87 C 218.00 175.72 214.02 176.21 210.08 176.88 C 210.75 180.22 211.35 183.59 212.20 186.90 C 209.10 183.37 206.61 179.22 206.02 174.49 Z" />
</g>
<g id="#94be0bff">
<path fill="#94be0b" opacity="1.00" d=" M 222.01 175.87 C 233.11 176.35 244.22 175.46 255.32 175.58 C 258.05 175.80 261.20 175.71 263.37 177.66 C 263.87 180.45 263.40 183.29 262.92 186.05 C 254.86 200.22 247.59 214.90 238.69 228.59 C 238.06 228.61 236.79 228.66 236.15 228.68 C 231.95 223.34 229.45 216.96 225.75 211.29 C 221.40 203.07 216.34 195.21 212.20 186.90 C 211.35 183.59 210.75 180.22 210.08 176.88 C 214.02 176.21 218.00 175.72 222.01 175.87 Z" />
</g>
</svg>
